<svg xmlns="http://www.w3.org/2000/svg" width="280" height="280" viewBox="0 0 280 280">
  <g id="Groupe_2619" data-name="Groupe 2619" transform="translate(4853 3791)">
    <g id="Tracé_3752" data-name="Tracé 3752" transform="translate(-4853 -3791)">
      <path d="M 140 278 C 130.6355743408203 278 121.2776107788086 277.0567016601562 112.1860733032227 275.1962890625 C 103.3266067504883 273.3833923339844 94.61214447021484 270.6782836914062 86.28478240966797 267.1560974121094 C 78.10814666748047 263.6976928710938 70.22164154052734 259.4169921875 62.84428405761719 254.4329681396484 C 55.5364990234375 249.4959259033203 48.66453552246094 243.8260040283203 42.41925048828125 237.5807495117188 C 36.17399978637695 231.3354644775391 30.50407218933105 224.4635009765625 25.56703567504883 217.1557159423828 C 20.58300018310547 209.7783508300781 16.30232048034668 201.8918609619141 12.84389305114746 193.7152099609375 C 9.321714401245117 185.3878631591797 6.616607189178467 176.6733856201172 4.803714275360107 167.8139343261719 C 2.943285703659058 158.7223968505859 2 149.3644256591797 2 140 C 2 130.6355743408203 2.943285703659058 121.2776107788086 4.803714275360107 112.1860733032227 C 6.616607189178467 103.3266067504883 9.321714401245117 94.61214447021484 12.84389305114746 86.28478240966797 C 16.30232048034668 78.10814666748047 20.58300018310547 70.22164154052734 25.56703567504883 62.84428405761719 C 30.50407218933105 55.5364990234375 36.17399978637695 48.66453552246094 42.41925048828125 42.41925048828125 C 48.66453552246094 36.17399978637695 55.5364990234375 30.50407218933105 62.84428405761719 25.56703567504883 C 70.22164154052734 20.58300018310547 78.10814666748047 16.30232048034668 86.28478240966797 12.84389305114746 C 94.61214447021484 9.321714401245117 103.3266067504883 6.616607189178467 112.1860733032227 4.803714275360107 C 121.2776107788086 2.943285703659058 130.6355743408203 2 140 2 C 149.3644256591797 2 158.7223968505859 2.943285703659058 167.8139343261719 4.803714275360107 C 176.6733856201172 6.616607189178467 185.3878631591797 9.321714401245117 193.7152099609375 12.84389305114746 C 201.8918609619141 16.30232048034668 209.7783508300781 20.58300018310547 217.1557159423828 25.56703567504883 C 224.4635009765625 30.50407218933105 231.3354644775391 36.17399978637695 237.5807495117188 42.41925048828125 C 243.8260040283203 48.66453552246094 249.4959259033203 55.5364990234375 254.4329681396484 62.84428405761719 C 259.4169921875 70.22164154052734 263.6976928710938 78.10814666748047 267.1560974121094 86.28478240966797 C 270.6782836914062 94.61214447021484 273.3833923339844 103.3266067504883 275.1962890625 112.1860733032227 C 277.0567016601562 121.2776107788086 278 130.6355743408203 278 140 C 278 149.3644256591797 277.0567016601562 158.7223968505859 275.1962890625 167.8139343261719 C 273.3833923339844 176.6733856201172 270.6782836914062 185.3878631591797 267.1560974121094 193.7152099609375 C 263.6976928710938 201.8918609619141 259.4169921875 209.7783508300781 254.4329681396484 217.1557159423828 C 249.4959259033203 224.4635009765625 243.8260040283203 231.3354644775391 237.5807495117188 237.5807495117188 C 231.3354644775391 243.8260040283203 224.4635009765625 249.4959259033203 217.1557159423828 254.4329681396484 C 209.7783508300781 259.4169921875 201.8918609619141 263.6976928710938 193.7152099609375 267.1560974121094 C 185.3878631591797 270.6782836914062 176.6733856201172 273.3833923339844 167.8139343261719 275.1962890625 C 158.7223968505859 277.0567016601562 149.3644256591797 278 140 278 Z" stroke="none"/>
      <path d="M 140 4 C 130.7699584960938 4 121.5469207763672 4.929656982421875 112.5870361328125 6.76312255859375 C 103.8568878173828 8.549530029296875 95.26969909667969 11.21514892578125 87.06388854980469 14.6859130859375 C 79.00619506835938 18.09402465820312 71.23423767089844 22.31253051757812 63.96392822265625 27.22430419921875 C 56.76161193847656 32.09007263183594 49.98876953125 37.67819213867188 43.83349609375 43.83349609375 C 37.67819213867188 49.98876953125 32.09007263183594 56.76161193847656 27.22430419921875 63.96392822265625 C 22.31253051757812 71.23423767089844 18.09402465820312 79.00619506835938 14.6859130859375 87.06388854980469 C 11.21514892578125 95.26969909667969 8.549530029296875 103.8568878173828 6.76312255859375 112.5870361328125 C 4.929656982421875 121.5469207763672 4 130.7699584960938 4 140 C 4 149.2300415039062 4.929656982421875 158.4530792236328 6.76312255859375 167.4129638671875 C 8.549530029296875 176.1431121826172 11.21514892578125 184.7303161621094 14.6859130859375 192.9361267089844 C 18.09402465820312 200.9938049316406 22.31253051757812 208.7657775878906 27.22430419921875 216.0360717773438 C 32.09007263183594 223.2383880615234 37.67819213867188 230.01123046875 43.83349609375 236.16650390625 C 49.98876953125 242.3218078613281 56.76161193847656 247.9099273681641 63.96392822265625 252.7756958007812 C 71.23423767089844 257.6874694824219 79.00619506835938 261.9059753417969 87.06388854980469 265.3140869140625 C 95.26969909667969 268.7848510742188 103.8568878173828 271.4504699707031 112.5870361328125 273.2368774414062 C 121.5469207763672 275.0703430175781 130.7699584960938 276 140 276 C 149.2300415039062 276 158.4530792236328 275.0703430175781 167.4129638671875 273.2368774414062 C 176.1431121826172 271.4504699707031 184.7303161621094 268.7848510742188 192.9361267089844 265.3140869140625 C 200.9938049316406 261.9059753417969 208.7657775878906 257.6874694824219 216.0360717773438 252.7756958007812 C 223.2383880615234 247.9099273681641 230.01123046875 242.3218078613281 236.16650390625 236.16650390625 C 242.3218078613281 230.01123046875 247.9099273681641 223.2383880615234 252.7756958007812 216.0360717773438 C 257.6874694824219 208.7657775878906 261.9059753417969 200.9938049316406 265.3140869140625 192.9361267089844 C 268.7848510742188 184.7303161621094 271.4504699707031 176.1431121826172 273.2368774414062 167.4129638671875 C 275.0703430175781 158.4530792236328 276 149.2300415039062 276 140 C 276 130.7699584960938 275.0703430175781 121.5469207763672 273.2368774414062 112.5870361328125 C 271.4504699707031 103.8568878173828 268.7848510742188 95.26969909667969 265.3140869140625 87.06388854980469 C 261.9059753417969 79.00619506835938 257.6874694824219 71.23423767089844 252.7756958007812 63.96392822265625 C 247.9099273681641 56.76161193847656 242.3218078613281 49.98876953125 236.16650390625 43.83349609375 C 230.01123046875 37.67819213867188 223.2383880615234 32.09007263183594 216.0360717773438 27.22430419921875 C 208.7657775878906 22.31253051757812 200.9938049316406 18.09402465820312 192.9361267089844 14.6859130859375 C 184.7303161621094 11.21514892578125 176.1431121826172 8.549530029296875 167.4129638671875 6.76312255859375 C 158.4530792236328 4.929656982421875 149.2300415039062 4 140 4 M 140 0 C 217.3198547363281 0 280 62.68016052246094 280 140 C 280 217.3198547363281 217.3198547363281 280 140 280 C 62.68016052246094 280 0 217.3198547363281 0 140 C 0 62.68016052246094 62.68016052246094 0 140 0 Z" stroke="none" fill="#fff"/>
    </g>
    <text id="GK" transform="translate(-4823 -3702)" fill="#fff" font-size="90" font-family="SnellRoundhand-Black, Snell Roundhand" font-weight="800" letter-spacing="0.12em"><tspan x="20.11" y="84">G</tspan><tspan y="84" fill="#866e6e">K</tspan></text>
  </g>
</svg>
