<svg xmlns="http://www.w3.org/2000/svg" xmlns:xlink="http://www.w3.org/1999/xlink" width="300" height="300" viewBox="0 0 300 300">
  <defs>
    <clipPath id="clip-path">
      <rect id="Rectangle_3425" data-name="Rectangle 3425" width="130" height="110" transform="translate(4279 965)" fill="#fff" stroke="#707070" stroke-width="1"/>
    </clipPath>
  </defs>
  <g id="Groupe_3745" data-name="Groupe 3745" transform="translate(-4521 -804)">
    <circle id="Ellipse_984" data-name="Ellipse 984" cx="150" cy="150" r="150" transform="translate(4521 804)" fill="#321734"/>
    <g id="Groupe_de_masques_5" data-name="Groupe de masques 5" transform="translate(327 -66)" clip-path="url(#clip-path)">
      <g id="_0b8ef11fb2b11609a920dfae7a636579" data-name="0b8ef11fb2b11609a920dfae7a636579" transform="translate(4292.032 965)">
        <path id="Tracé_6957" data-name="Tracé 6957" d="M116.674,113.607c-4.318.7-8.535,1.886-12.8,2.855-1.907.43-3.888.569-5.81.937-1.127.218-2.3.619-3.464.783.356-.114.678-.216.9-.3,1.494-.584,3.047-.979,4.58-1.44,2.517-.76,5.171-1.139,7.4-2.645.614-.414.458-1.639-.415-1.548-2.513.266-5.081.613-7.575,1.052-2.8.494-5.521,1.357-8.316,1.872l-1.113.206c1.733-.5,3.469-1.01,5.163-1.625.847-.305,2.353-.7,2.157-1.891a.811.811,0,0,0-.788-.611c-2.8.081-5.539.9-8.3,1.322-1.4.212-2.808.407-4.21.619a1.779,1.779,0,0,0,.776-.69c.264-.5-.053-1.326-.708-1.251-5.9.684-11.715,1.841-17.516,3.083A8.843,8.843,0,0,0,68.695,113a.839.839,0,0,0-.577-1.419,80.339,80.339,0,0,0-8.173.891A90.047,90.047,0,0,0,50.783,114c-1.056.231-2.116.437-3.176.64q1.693-.527,3.376-1.087a.832.832,0,0,0-.436-1.6c-2.327.422-4.709.536-7.045.916-2.488.4-4.9,1.174-7.356,1.743-.675.158-1.349.312-2.024.463a40.864,40.864,0,0,0,4.946-1.934.839.839,0,0,0-.413-1.55,29.04,29.04,0,0,0-4.8,1.026c-1.756.393-3.491.754-5.222,1.205a.754.754,0,0,0-.782-.9,24.772,24.772,0,0,0-6.532,1.5c-1.8.609-3.988.85-5.5,2.066a.84.84,0,0,0,.36,1.388,7.124,7.124,0,0,0,3.383-.488,53.093,53.093,0,0,1,5.982-1.228q.42-.066.837-.147c-.677.247-1.353.486-2.038.706a15.584,15.584,0,0,0-3.446,1.3c-.479.287-.589,1.182,0,1.434,1.647.71,3.391-.179,5-.752a74.5,74.5,0,0,1,8.335-2c1.508-.343,3.01-.711,4.514-1.07-2.529.8-5.04,1.652-7.5,2.639-.806.322-.771,1.671.219,1.631a14.333,14.333,0,0,0,3.91-.777,47.174,47.174,0,0,1,4.621-1.257c3.135-.69,6.272-1.365,9.435-1.891,3.328-.553,6.589-1.346,9.945-1.762,1.433-.178,2.867-.38,4.3-.551-.1.021-.192.044-.282.06-1.782.33-3.517.892-5.3,1.222a36.167,36.167,0,0,0-4.711,1.6,23.506,23.506,0,0,0-4.322,1.479.833.833,0,0,0,.63,1.517c7.923-1.392,15.745-3.357,23.641-4.891-1.615.438-3.231.885-4.811,1.426-.845.291-1.678.6-2.511.912a13.69,13.69,0,0,0-4.183,1.369.833.833,0,0,0,.63,1.517,37.774,37.774,0,0,0,4.164-1.336c1.058-.2,2.118-.368,3.059-.617,3.02-.8,6.067-1.5,9.143-2.034,2.9-.5,5.765-1.105,8.687-1.519.088-.012.178-.027.268-.041-4.158,1.2-8.232,2.56-12.333,3.948a.841.841,0,0,0-.2,1.517c1.244.617,3.368-.36,4.6-.673,3.049-.775,6.143-1.29,9.235-1.862,2.941-.542,5.85-1.2,8.768-1.8-1.465.5-2.959.9-4.41,1.487a5.089,5.089,0,0,0-2.325,1.212.849.849,0,0,0,.362,1.385,7.332,7.332,0,0,0,4.69,0,66.678,66.678,0,0,1,7.312-1.3,60.512,60.512,0,0,0,6.436-1.5c2.386-.578,4.78-1.124,7.2-1.519,1.04-.169.6-1.77-.434-1.6Z" transform="translate(-15.572 -9.979)" fill="#b3b3b3"/>
        <path id="Tracé_6958" data-name="Tracé 6958" d="M31.776,25.865a3.208,3.208,0,0,0-1.185,2.872,51.219,51.219,0,0,1-1.14,9.155c-.511,2.57-1.146,5.118-1.723,7.676a32.521,32.521,0,0,0-1.144,7.073.379.379,0,0,0,.374.38h.5a.382.382,0,0,0,0-.763h-.108c.1-4.051,1.6-8.157,2.367-12.128.413-2.146.865-4.231,1.095-6.41.127-1.184.225-2.373.352-3.559A8.093,8.093,0,0,1,31.74,27a.377.377,0,0,0,.6-.3v-.509a.379.379,0,0,0-.566-.328Zm5.576-4.756c.029-.492-.722-.49-.751,0-.084,1.384-.5,2.691-.5,4.085a27.74,27.74,0,0,1-.129,5.184c-.819,4.141-1.668,8.274-2.75,12.35-.964,3.64-2.4,7.226-2.969,10.958-.227,1.49-.152,3-.356,4.5-.178,1.3.309,2.82-.7,3.842-.344.347.188.887.53.538a2.706,2.706,0,0,0,.853-2.076c.113-1.652.241-3.283.278-4.937.092-4.045,1.8-8.045,2.889-11.9,1.212-4.3,2.081-8.694,2.945-13.078a25.223,25.223,0,0,0,.157-4.833C36.85,24.163,37.258,22.675,37.352,21.108Zm6.31-4.261c-.962,1.4-1.015,3.092-1.154,4.721-.2,2.4-.812,4.8-1.24,7.162-.82,4.561-1.946,9.053-3.01,13.553a89.83,89.83,0,0,0-2.071,13.551c-.192,2.421-.311,4.845-.52,7.266-.18,2.1-.516,4.214-.569,6.319a.375.375,0,0,0,.749,0c.11-4.264.741-8.592,1.037-12.857a91.755,91.755,0,0,1,2.1-14.077c.984-4.278,2.005-8.536,2.877-12.843.409-2.02.755-4.058,1.123-6.086.373-2.051.114-4.55,1.33-6.325.278-.405-.375-.785-.649-.384Zm4.958,2.734c-.2,2.4-.892,4.692-.982,7.121-.1,2.61-.072,5.19-.344,7.794a108.645,108.645,0,0,1-3.487,16.331A76.8,76.8,0,0,0,41.863,65.5q-.108,1.706-.256,3.41c-.09,1.047-.407,2.078-.473,3.121-.08,1.255-.029,2.524-.029,3.781,0,1.143-.395,2.148-.5,3.266-.047.49.7.486.751,0,.082-.875.42-1.666.5-2.543.123-1.326,0-2.732,0-4.067a19.45,19.45,0,0,1,.4-2.366c.164-1.292.217-2.612.309-3.915a87.761,87.761,0,0,1,2.324-16.537A113.847,113.847,0,0,0,47.966,35.2a64.869,64.869,0,0,0,.409-7.819c.02-2.67.774-5.17,1-7.8.041-.488-.71-.486-.751,0Zm7.011,0c-.143,2.793-1.567,5.331-2.048,8.076-.466,2.666-.559,5.388-.872,8.072a71.748,71.748,0,0,1-1.369,8.292c-.712,3.008-1.764,5.866-2.333,8.92-1.117,6.013-1.93,12.107-2.92,18.148a52.2,52.2,0,0,0-.984,7.945c-.029,2.416-.491,4.754-.491,7.168a.374.374,0,0,0,.749,0c0-2.2.4-4.341.479-6.535a78.189,78.189,0,0,1,1.212-9.843c.99-6.025,1.772-12.115,2.953-18.106.548-2.772,1.562-5.39,2.212-8.133a78.893,78.893,0,0,0,1.244-7.858c.373-2.838.465-5.7.96-8.525.458-2.618,1.821-4.939,1.96-7.623.026-.493-.725-.488-.752,0Zm3.618,6.853c-2.177,2.4-2.521,5.706-2.863,8.825-.5,4.5-2.184,8.716-2.257,13.31a.376.376,0,0,0,.751,0,32.638,32.638,0,0,1,.682-5.828c.38-1.928,1.119-3.831,1.377-5.772.454-3.4.411-7.314,2.843-10,.327-.36-.205-.9-.532-.536Zm2.893,7.9C62,35.9,61.126,37.184,60.952,38.767c-.227,2.1-.1,4.108-.8,6.14-.159.465.565.665.724.2a16.816,16.816,0,0,0,.745-4.955c.084-2.078,1.087-3.813,1.273-5.826C62.939,33.839,62.188,33.844,62.143,34.329Zm-7.9,19.565c-1.7,1.949-1.353,3.989-1.686,6.4a94.021,94.021,0,0,1-1.744,9.921c-.317,1.259-.376,2.562-.694,3.835a35.866,35.866,0,0,0-.845,4.018A63.868,63.868,0,0,0,49.12,86.2a.377.377,0,0,0,.753,0c0-2.261-.041-4.523.043-6.782.1-2.743,1.172-5.261,1.441-7.966.3-3,1.222-6.013,1.647-9.013.372-2.6-.037-5.943,1.768-8.008.319-.367-.211-.91-.532-.54Zm2.394,10.439a46.5,46.5,0,0,1-1.125,5.681q-.683,3.466-1.368,6.933C53.346,81,52.2,85.1,52.128,89.254a.374.374,0,0,0,.749,0c.074-4.293,1.3-8.6,2.126-12.8q.684-3.466,1.367-6.934a41.684,41.684,0,0,0,1.015-5.188C57.418,63.843,56.665,63.847,56.634,64.333ZM61.142,68.4c-.149,1.943-1.279,3.823-1.918,5.65a39.118,39.118,0,0,0-1.461,6.267c-.679,3.935-2.548,7.389-2.632,11.478a.376.376,0,0,0,.751,0c.084-4.226,2.02-7.869,2.724-11.952a38.337,38.337,0,0,1,1.547-6.179c.616-1.754,1.594-3.377,1.739-5.263.037-.49-.714-.488-.751,0Zm2.515,6.51c-1.483,7.958-3.458,15.856-3.517,24a.376.376,0,0,0,.751,0c.062-8.079,2.022-15.908,3.493-23.8C64.474,74.635,63.749,74.429,63.657,74.913Zm5,2.136c-.086,1.812-.913,3.38-1.187,5.142-.323,2.076-.413,4.185-.7,6.265-.565,4.16-1.563,8.278-1.623,12.494a.376.376,0,0,0,.751,0c.061-4.369,1.1-8.656,1.688-12.968.28-2.055.374-4.128.7-6.175.252-1.627,1.042-3.071,1.122-4.758.024-.493-.727-.49-.751,0Zm3.254,4.068a.374.374,0,0,0-.749,0,103.865,103.865,0,0,1-.843,11.413c-.446,3.773.029,7.6-.647,11.37-.086.48.636.688.724.2a58.378,58.378,0,0,0,.516-10.27c0-1.972.475-4.05.659-6.017.2-2.228.328-4.461.34-6.7ZM77.169,80.1c-.065,7.906-2.908,15.473-3,23.392a.375.375,0,0,0,.751,0c.1-7.923,2.939-15.482,3-23.392A.376.376,0,0,0,77.169,80.1Zm5.511-1.527c-.2,4.565-1.416,9.147-1.5,13.73-.033,1.72-.262,3.449-.4,5.161-.223,2.717-.442,5.435-.6,8.157-.037.613-.563,3.4.19,3.794.428.226.808-.432.378-.659.223.119.09-.075.086-.372-.008-.347,0-.7.012-1.045.033-1.024.1-2.051.168-3.073.172-2.62.393-5.236.608-7.856.129-1.573.2-3.16.407-4.723.284-2.165.4-4.343.593-6.516.2-2.207.717-4.39.815-6.6.022-.493-.728-.49-.749,0Zm5.509-5.6c-.023,5.778-.491,11.54-1,17.292-.53,5.932-1.463,11.831-1.5,17.8a.374.374,0,0,0,.749,0c.041-5.972,1-11.862,1.5-17.8.491-5.753.982-11.509,1-17.292A.374.374,0,0,0,88.188,72.979Zm3.757-1.523a.377.377,0,0,0-.753,0c.025,6.458.876,12.916.119,19.352-.385,3.267-.835,6.52-1.036,9.807s-.485,6.611-.565,9.9a.376.376,0,0,0-.02.1v.509a.376.376,0,0,0,.751,0c.055-3.264.428-6.529.548-9.795.119-3.287.588-6.555.987-9.818.825-6.689-.006-13.34-.03-20.055Zm5.007,2.032a.375.375,0,0,0-.751,0c.01,3.162.143,6.325.117,9.485s-.518,6.236-.788,9.365c-.538,6.26-1.3,12.492-1.332,18.785a.375.375,0,0,0,.751,0c.031-6.29.776-12.529,1.332-18.785.28-3.133.731-6.206.788-9.365S96.963,76.65,96.953,73.488Zm5.509-.509a.375.375,0,0,0-.751,0c.024,6.013.43,11.937-.24,17.935-.374,3.356-.812,6.7-1.451,10.015a65.981,65.981,0,0,0-1.246,6.933.344.344,0,0,0-.068.208v1.018a.375.375,0,0,0,.751,0c.054-2.98.868-5.777,1.427-8.679s.917-5.841,1.256-8.775c.725-6.246.348-12.388.321-18.656Zm3.757,4.07c0,2.422-.016,4.844-.143,7.264-.15,2.786-.708,5.5-1,8.261-.546,5.153-1.359,10.326-1.359,15.5a.376.376,0,0,0,.751,0c0-5.155.861-10.356,1.359-15.5.248-2.543.769-5.032.96-7.586.2-2.641.186-5.294.186-7.94A.375.375,0,0,0,106.218,77.049Zm5.007,3.052c0,1.463-.5,2.786-.5,4.206v6.181c0,3.7-.933,7.279-1,10.971a.377.377,0,0,0,.753,0c.066-3.692,1-7.268,1-10.971V84.307c0-1.388.5-2.772.5-4.206A.376.376,0,0,0,111.225,80.1Zm4.76,5.082a.377.377,0,0,0-.753,0c0,4.949.264,9.932-1.489,14.651-.168.459.556.657.726.2C116.245,95.252,115.985,90.2,115.985,85.183Z" transform="translate(-15.222 -14.483)" fill="#1f8aff"/>
        <g id="Groupe_3744" data-name="Groupe 3744" transform="translate(5.545)">
          <path id="Tracé_6959" data-name="Tracé 6959" d="M88.906,113.606a21.341,21.341,0,0,1-5.04-.582A71.927,71.927,0,0,1,63.519,104.5a36.486,36.486,0,0,1-5.5-4.445c-1.027-.945-2.091-1.924-3.2-2.819-2.932-2.359-5.582-4.648-8.1-7.006A74.951,74.951,0,0,1,31.234,69.066a9.522,9.522,0,0,0-1.692-2.232,8.374,8.374,0,0,1-1.5-1.961c-.737-1.492-1.551-2.932-2.339-4.324l-.643-1.139a33.807,33.807,0,0,1-3.2-9.309c-.7-3.43-1.377-7.391-.466-11.018.939-3.734,2.454-6.387,4.655-10,3-4.931,7.852-9.157,15.268-13.3l.149-.083.059-.166a1.291,1.291,0,0,1,1.175-.947,1.538,1.538,0,0,1,.45.073,8,8,0,0,0,2.237.266,6.116,6.116,0,0,1,2.235.316c.369.152.741.3,1.115.447.894.351,1.821.719,2.67,1.153a20.224,20.224,0,0,1,6.833,5.151c1.821,2.311,3.442,4.854,5.01,7.314l.829,1.3c.125.194.262.395.405.6a5.209,5.209,0,0,1,1.142,2.423,18.2,18.2,0,0,0,1.318,5.369,1.217,1.217,0,0,1,.1,1.28,1.651,1.651,0,0,1-1.412.823,1.342,1.342,0,0,1-1.171-.673,8.829,8.829,0,0,1-1.013-3.487,9.424,9.424,0,0,0-1.119-3.763q-2.462-3.847-5.014-7.634A17.624,17.624,0,0,0,49.886,19.3a17.977,17.977,0,0,0-4.414-1.174c-.569-.1-1.14-.2-1.715-.322l-.213-.048-.168.139a1.5,1.5,0,0,1-.241.168c-6.008,3.32-12.509,7.5-15.2,13.369-.436.952-.943,1.868-1.432,2.751-1.3,2.344-2.638,4.768-2.646,7.912A32.425,32.425,0,0,0,25.64,53.026a57.486,57.486,0,0,0,3.182,7.021c.362.715.728,1.434,1.089,2.167a12.453,12.453,0,0,0,1.974,2.73c.325.372.655.748.974,1.159a10.623,10.623,0,0,1,1.132,1.978,14.08,14.08,0,0,0,.995,1.816c.882,1.294,1.684,2.676,2.458,4.014a43.146,43.146,0,0,0,3.878,5.932l.64.781a74.362,74.362,0,0,0,6.806,7.586c2.685,2.5,4.933,4.465,7.08,6.192,1.036.831,2.063,1.816,3.055,2.768a31.118,31.118,0,0,0,5.042,4.208,81.23,81.23,0,0,0,17.75,8.2,22.643,22.643,0,0,0,6.874,1.029,30.913,30.913,0,0,0,13.661-3.4,29.006,29.006,0,0,0,7.907-5.976c.579-.588,1.24-1.153,1.879-1.7a16.752,16.752,0,0,0,3.524-3.713,1.417,1.417,0,0,1,.608-.552l.289-.133-.029-.324c-.223-2.516-1.029-8.562-3.706-10.358a7.667,7.667,0,0,1-1.664-1.824l-.207-.279a13.082,13.082,0,0,0-3.011-2.668c-.376-.272-.749-.54-1.107-.816-4.786-3.73-10.135-6.013-15.063-6.431a1.545,1.545,0,0,1-1.389-1.683,1.151,1.151,0,0,1,1.168-1.226c.045,0,.1,0,.146.006a15.031,15.031,0,0,1,2.488.5c.444.114.886.229,1.336.324.475.1,1.042.181,1.641.26a10.435,10.435,0,0,1,3.909,1.01c1.056.715,2.108,1.392,3.155,2.063a71.429,71.429,0,0,1,6.506,4.526c3.309,2.674,5.4,5.047,6.4,7.256A30.341,30.341,0,0,1,119.334,95.8a1.186,1.186,0,0,1-1.058,1.332l-.2.031-.11.175a20.954,20.954,0,0,1-5.5,5.77,17.519,17.519,0,0,0-2.6,2.271,23.534,23.534,0,0,1-1.809,1.681,24.5,24.5,0,0,1-4.338,2.622,33.716,33.716,0,0,1-14.817,3.923Z" transform="translate(-20.947 -14.582)" fill="#0077bf"/>
          <path id="Tracé_6960" data-name="Tracé 6960" d="M77.928,81.253a5.561,5.561,0,0,1-1.393-.174,17.079,17.079,0,0,1-8.418-4.617c-.735-.75-1.492-1.481-2.251-2.217a46.511,46.511,0,0,1-5.255-5.685C58.251,65.346,55.976,62.2,54.089,59c-1.25-2.117-2.157-5.982-1.457-8.147.9-2.8,2.873-5.2,4.776-7.524l.629-.771A27.475,27.475,0,0,1,64.2,37.366a1.3,1.3,0,0,1,.729-.25,1.418,1.418,0,0,1,1.25,1.1A1.457,1.457,0,0,1,65.6,39.9l-.211.143c-2.148,1.452-4.367,2.955-5.789,5.224a16.6,16.6,0,0,1-1.488,1.885c-1.475,1.71-3.152,3.649-2.619,5.955.1.455.164.916.227,1.409a7.712,7.712,0,0,0,.837,3.036,15.437,15.437,0,0,0,1.091,1.537,14.349,14.349,0,0,1,.992,1.386c1.387,2.3,2.6,4.135,3.808,5.78a37.281,37.281,0,0,0,4.078,4.476c.679.665,1.381,1.355,2.053,2.066l.221.237c1.713,1.816,3.651,3.877,6.243,4.633a7.336,7.336,0,0,0,2.047.3c4.776,0,8.772-4.671,11.721-8.741a1.457,1.457,0,0,1,1.219-.636,1.682,1.682,0,0,1,1.459.833,1.1,1.1,0,0,1-.162,1.185c-5.124,7.069-9.63,10.655-13.4,10.655ZM34.246,117.139q-.251,0-.5-.013c-2.846-.137-9.515-.461-11.381-4.128a1.386,1.386,0,0,1,.024-1.415,1.649,1.649,0,0,1,1.355-.8,1.151,1.151,0,0,1,1.062.714c1.394,2.737,8.5,2.768,8.8,2.768.465,0,.878-.017,1.2-.05a13.521,13.521,0,0,0,2.1-.418l1.027-.283-.913-.552c-3.231-1.951-5.036-4.228-5.366-6.776-.428-3.308.434-8.656,4.561-9.845a9.22,9.22,0,0,1,2.534-.372c3.256,0,6.063,1.939,7.708,5.317,2.126,4.376,1.833,7.386-1.044,10.734l-.153.166-.6.677.894.083c.44.042.888.063,1.324.063a13.756,13.756,0,0,0,2.583-.245q.862-.162,1.717-.318a50.841,50.841,0,0,0,6.929-1.6c2.7-.887,7.338-2.882,8.054-6.254a1.164,1.164,0,0,1,1.193-1.009,1.676,1.676,0,0,1,1.287.613,1.42,1.42,0,0,1,.26,1.22c-1.046,4.926-6.927,7.278-11.257,8.617a36.188,36.188,0,0,1-10.586,1.88,17.368,17.368,0,0,1-5.331-.773l-.182-.058-.168.092a15.354,15.354,0,0,1-7.133,1.971ZM38.4,98.98c-1.821,0-3.814,1.159-3.949,4.415-.17,4.081,2.286,6.061,4.709,7.457a17.32,17.32,0,0,0,1.938.95l.225.091.2-.135a6.869,6.869,0,0,0,1.314-1.132c2.546-2.963,2.746-5.573.671-8.725A6.451,6.451,0,0,0,38.4,98.98Z" transform="translate(-20.907 -13.509)" fill="#0077bf"/>
          <path id="Tracé_6961" data-name="Tracé 6961" d="M54.789,48.044a1.336,1.336,0,0,1-1.429-1.388v-.233l-.188-.137a1.246,1.246,0,0,1-.145-.129,1.447,1.447,0,0,1-.369-.642,13.9,13.9,0,0,1-.3-1.623,12.387,12.387,0,0,0-.462-2.184,11.745,11.745,0,0,0-1.232-2.354,15.718,15.718,0,0,1-.849-1.473c-.207-.426-.389-.916-.581-1.436a12.238,12.238,0,0,0-.98-2.194c-3.088-4.91-7.834-8.477-14.105-10.6a1.462,1.462,0,0,1-.972-1.685,1.3,1.3,0,0,1,1.209-1.209,1.532,1.532,0,0,1,.475.083c6.173,2.092,10.827,5.249,14.22,9.649a17.305,17.305,0,0,1,1.948,3.6,14.923,14.923,0,0,0,2.509,4.284c1.2,1.271,1.772,3.994,1.9,5.945l.008.156.1.118a2.8,2.8,0,0,1,.667,2.059,1.335,1.335,0,0,1-1.426,1.388ZM107,104.494a1.336,1.336,0,0,1-1.428-1.388A27.755,27.755,0,0,0,99.194,86.45a32.919,32.919,0,0,0-6.933-6.275,17.166,17.166,0,0,0-4.9-1.785c-.7-.176-1.426-.359-2.136-.579a1.387,1.387,0,0,1-.976-1.621A1.352,1.352,0,0,1,85.5,74.933a1.553,1.553,0,0,1,.452.073c.782.245,1.562.453,2.314.653a17.368,17.368,0,0,1,6.368,2.651,38.244,38.244,0,0,1,7.326,6.95,31.69,31.69,0,0,1,6.45,17.325l.01.114,0,.408A1.335,1.335,0,0,1,107,104.494Z" transform="translate(-20.559 -14.288)" fill="#0077bf"/>
        </g>
      </g>
    </g>
  </g>
</svg>
